<?xml version="1.0" encoding="UTF-8" standalone="no"?>
<!-- Created with Inkscape (http://www.inkscape.org/) -->

<svg
   width="256"
   height="256"
   viewBox="0 0 67.733334 67.733338"
   version="1.1"
   id="svg5"
   inkscape:version="1.1.1 (3bf5ae0d25, 2021-09-20, custom)"
   sodipodi:docname="eighth-note-symbolic.svg"
   xmlns:inkscape="http://www.inkscape.org/namespaces/inkscape"
   xmlns:sodipodi="http://sodipodi.sourceforge.net/DTD/sodipodi-0.dtd"
   xmlns="http://www.w3.org/2000/svg"
   xmlns:svg="http://www.w3.org/2000/svg"
   xmlns:rdf="http://www.w3.org/1999/02/22-rdf-syntax-ns#"
   xmlns:cc="http://creativecommons.org/ns#">
  <sodipodi:namedview
     id="namedview7"
     pagecolor="#ffffff"
     bordercolor="#666666"
     borderopacity="1.0"
     inkscape:pageshadow="2"
     inkscape:pageopacity="0.0"
     inkscape:pagecheckerboard="0"
     inkscape:document-units="mm"
     showgrid="true"
     inkscape:zoom="2.5620932"
     inkscape:cx="204.71543"
     inkscape:cy="120.60451"
     inkscape:window-width="1282"
     inkscape:window-height="971"
     inkscape:window-x="0"
     inkscape:window-y="27"
     inkscape:window-maximized="0"
     inkscape:current-layer="layer1"
     units="px"
     inkscape:snap-global="true">
    <inkscape:grid
       type="xygrid"
       id="grid4773" />
  </sodipodi:namedview>
  <defs
     id="defs2" />
  <g
     inkscape:label="Layer 1"
     inkscape:groupmode="layer"
     id="layer1"
     style="display:inline">
    <g
       id="g6958">
      <path
         id="path5198"
         style="fill:#000000;stroke-width:0.999996"
         d="m 29.104167,13.229167 c 0,0 -0.475642,37.771141 -0.558582,38.239317 -0.351367,1.980068 -2.002725,3.903857 -4.669791,5.440237 -1.210846,0.697488 -3.104894,1.508725 -4.241033,1.816381 -0.184189,0.05001 -0.427645,0.121063 -0.540996,0.158171 -0.27964,0.09134 -1.769596,0.423029 -2.215505,0.493191 -1.028841,0.161863 -1.654323,0.210568 -2.936835,0.229296 -1.158191,0.01533 -1.498972,0.0031 -2.035175,-0.07451 l -1.09e-4,-4.23e-4 c -1.368198,-0.201075 -2.4185413,-0.518605 -3.3420053,-1.009865 -1.366217,-0.726764 -2.093616,-1.484543 -2.470327,-2.573491 -0.585681,-1.69301 0.254135,-3.676753 2.312986,-5.46359 0.484523,-0.420523 1.447238,-1.15718 1.512276,-1.15718 0.01442,0 0.1831773,-0.101762 0.3753583,-0.225911 0.50033,-0.323535 1.548183,-0.89397 2.178469,-1.185902 3.20273,-1.483411 6.398441,-2.113558 9.578387,-1.888754 1.768115,0.125064 2.97227,0.368683 3.942819,0.797906 0.164949,0.07295 0.320187,0.132727 0.345,0.132727 0.0257,0 0.0451,-8.775127 0.0451,-20.418742 0,-15.812519 0.07413,-22.569275 0.07413,-22.569275 0,0 27.127723,4.6472175 27.214967,4.7345735 0.08315,0.08307 0.09064,44.9428175 0.0077,45.4109935 -0.351367,1.980068 -2.002725,3.903857 -4.669791,5.440237 -1.210846,0.697488 -3.104894,1.508725 -4.241033,1.816381 -0.184189,0.05001 -0.427645,0.121063 -0.540996,0.158171 -0.27964,0.09134 -1.769596,0.423029 -2.215505,0.493191 -1.028841,0.161863 -1.654323,0.210568 -2.936835,0.229296 -1.158191,0.01533 -1.498972,0.0031 -2.035175,-0.07451 l -1.09e-4,-4.23e-4 c -1.368198,-0.201075 -2.418541,-0.518605 -3.342005,-1.009865 -1.366217,-0.726764 -2.093616,-1.484543 -2.470327,-2.573491 -0.585681,-1.69301 0.254135,-3.676753 2.312986,-5.46359 0.484523,-0.420523 1.447238,-1.15718 1.512276,-1.15718 0.01442,0 0.183177,-0.101762 0.375358,-0.225911 0.50033,-0.323535 1.548183,-0.89397 2.178469,-1.185902 3.20273,-1.483411 6.398441,-2.113558 9.578387,-1.888754 1.768115,0.125064 2.97227,0.368683 3.942819,0.797906 0.164949,0.07295 0.320187,0.132727 0.345,0.132727 0.0257,0 0.11923,-32.404683 0.11923,-32.404683"
         sodipodi:nodetypes="ccccccccccscscscssscccccccccccssscscssc" />
    </g>
  </g>
  <metadata
     id="metadata4775">
    <rdf:RDF>
      <cc:Work
         rdf:about="" />
    </rdf:RDF>
  </metadata>
</svg>
