<?xml version="1.0" encoding="UTF-8" standalone="no"?>
<!-- Created with Inkscape (http://www.inkscape.org/) -->

<svg
   width="16"
   height="16"
   viewBox="0 0 4.2333333 4.2333333"
   version="1.1"
   id="svg5"
   inkscape:version="1.1.1 (3bf5ae0d25, 2021-09-20, custom)"
   sodipodi:docname="triplet-note-symbolic.svg"
   xmlns:inkscape="http://www.inkscape.org/namespaces/inkscape"
   xmlns:sodipodi="http://sodipodi.sourceforge.net/DTD/sodipodi-0.dtd"
   xmlns="http://www.w3.org/2000/svg"
   xmlns:svg="http://www.w3.org/2000/svg"
   xmlns:rdf="http://www.w3.org/1999/02/22-rdf-syntax-ns#"
   xmlns:cc="http://creativecommons.org/ns#">
  <sodipodi:namedview
     id="namedview7"
     pagecolor="#ffffff"
     bordercolor="#666666"
     borderopacity="1.0"
     inkscape:pageshadow="2"
     inkscape:pageopacity="0.0"
     inkscape:pagecheckerboard="0"
     inkscape:document-units="mm"
     showgrid="true"
     inkscape:zoom="40.993491"
     inkscape:cx="9.3063555"
     inkscape:cy="8.0622555"
     inkscape:window-width="1284"
     inkscape:window-height="1024"
     inkscape:window-x="0"
     inkscape:window-y="0"
     inkscape:window-maximized="0"
     inkscape:current-layer="layer1"
     units="px"
     inkscape:snap-global="true"
     lock-margins="true"
     fit-margin-top="0"
     fit-margin-left="0"
     fit-margin-right="0"
     fit-margin-bottom="0"
     inkscape:snap-grids="true"
     inkscape:snap-bbox="false"
     inkscape:bbox-nodes="false"
     inkscape:snap-bbox-edge-midpoints="false"
     inkscape:snap-smooth-nodes="true"
     viewbox-width="4.13333"
     viewbox-height="4.13333"
     inkscape:object-nodes="true">
    <inkscape:grid
       type="xygrid"
       id="grid4773"
       originx="0"
       originy="0" />
  </sodipodi:namedview>
  <defs
     id="defs2" />
  <g
     inkscape:label="Layer 1"
     inkscape:groupmode="layer"
     id="layer1"
     style="display:inline"
     transform="translate(-1.7632951,-3.9687479)">
    <path
       id="path4226"
       style="fill:#000000;fill-opacity:1;stroke-width:0.999994"
       d="m 2.8216326,5.0219048 v 2.1790927 c -0.402955,-0.076602 -0.6423369,-0.0064 -0.8077518,0.2181437 -0.074418,0.1010203 -0.090419,0.3065877 0.014002,0.3761542 0.3134885,0.2088507 1.0583292,-0.1223808 1.0583333,-0.3961986 0.0052,-0.5477323 0.00129,-1.0370507 0,-1.5847947 L 4.1445492,6.0124015 V 7.3990968 C 3.716813,7.3219387 3.5135984,7.4407606 3.350795,7.6677382 c -0.063269,0.088208 -0.089201,0.2638013 4.2e-6,0.3256565 0.3095505,0.2146442 1.0583292,-0.055897 1.0583334,-0.3961986 0.00268,-0.5405205 -4.2e-6,-1.5847946 -4.2e-6,-1.5847946 l 1.0583333,0.1980993 c 0,0 0.00109,0.8974407 0,1.3866953 -0.3961473,-0.1100964 -0.7386786,0.053256 -0.79375,0.3351254 -0.023917,0.1224113 0.1438243,0.233378 0.2645833,0.2645833 0.3632903,-0.00861 0.7994421,-0.1767956 0.79375,-0.5291666 0.00164,-0.671936 4.2e-6,-2.2496345 4.2e-6,-2.2496345 z"
       sodipodi:nodetypes="ccaaccscaaccccacccc" />
    <g
       aria-label="3"
       transform="scale(1.162091,0.8605178)"
       id="text7910"
       style="font-size:1.74527px;line-height:1.35;font-family:'Standard Symbols PS';-inkscape-font-specification:'Standard Symbols PS';stroke-width:0.264583">
      <path
         d="M 3.9982229,5.2264057 C 4.142743,5.2314757 4.2842116,5.1058051 4.2825241,4.9575805 4.2864141,4.8637945 4.2210521,4.7688128 4.1261191,4.753473 4.0456481,4.737027 3.9579981,4.766721 3.9074871,4.832633 3.8799261,4.845849 3.8719251,4.922974 3.8379311,4.892705 3.8234011,4.861677 3.8653851,4.811697 3.8791441,4.7771425 3.9238561,4.6951545 4.0084758,4.636283 4.1022148,4.6301 c 0.114706,-0.01573 0.2422995,0.0363 0.2946928,0.1439335 0.053959,0.1070314 0.023718,0.2436394 -0.060117,0.3265554 -0.021181,0.030529 -0.077184,0.059961 -0.082554,0.083253 0.090562,0.045922 0.1728082,0.1247284 0.1903477,0.2290078 0.033122,0.1659593 -0.052324,0.3423666 -0.1950939,0.4290762 -0.1353166,0.085428 -0.3189092,0.1008511 -0.4605141,0.021774 -0.0404,-0.021754 -0.081829,-0.071438 -0.056123,-0.1188733 0.021123,-0.044189 0.079763,-0.043241 0.1151556,-0.017758 0.066371,0.040258 0.1282449,0.099203 0.2101845,0.102096 0.088115,0.011742 0.182927,-0.031037 0.2219957,-0.1135307 C 4.3398731,5.5927953 4.3090391,5.4324155 4.2083001,5.34028 4.1539141,5.284595 4.0730403,5.269378 3.9982235,5.272437 c -10e-8,-0.015344 -4e-7,-0.030688 -6e-7,-0.046031 z"
         id="path18803"
         style="stroke-width:0.264583" />
    </g>
  </g>
  <metadata
     id="metadata4775">
    <rdf:RDF>
      <cc:Work
         rdf:about="" />
    </rdf:RDF>
  </metadata>
</svg>
