<?xml version="1.0" encoding="UTF-8" standalone="no"?>
<!-- Created with Inkscape (http://www.inkscape.org/) -->

<svg
   width="253.50812"
   height="256.759"
   viewBox="0 0 67.074025 67.934162"
   version="1.1"
   id="svg5"
   inkscape:version="1.1.1 (3bf5ae0d25, 2021-09-20, custom)"
   sodipodi:docname="triplet-note-symbolic.svg"
   xmlns:inkscape="http://www.inkscape.org/namespaces/inkscape"
   xmlns:sodipodi="http://sodipodi.sourceforge.net/DTD/sodipodi-0.dtd"
   xmlns="http://www.w3.org/2000/svg"
   xmlns:svg="http://www.w3.org/2000/svg"
   xmlns:rdf="http://www.w3.org/1999/02/22-rdf-syntax-ns#"
   xmlns:cc="http://creativecommons.org/ns#">
  <sodipodi:namedview
     id="namedview7"
     pagecolor="#ffffff"
     bordercolor="#666666"
     borderopacity="1.0"
     inkscape:pageshadow="2"
     inkscape:pageopacity="0.0"
     inkscape:pagecheckerboard="0"
     inkscape:document-units="mm"
     showgrid="true"
     inkscape:zoom="2.5620932"
     inkscape:cx="202.37359"
     inkscape:cy="142.07133"
     inkscape:window-width="1280"
     inkscape:window-height="971"
     inkscape:window-x="0"
     inkscape:window-y="27"
     inkscape:window-maximized="1"
     inkscape:current-layer="layer1"
     units="px"
     inkscape:snap-global="true"
     lock-margins="false"
     fit-margin-top="0"
     fit-margin-left="0"
     fit-margin-right="0"
     fit-margin-bottom="0"
     inkscape:snap-grids="true"
     inkscape:snap-bbox="false"
     inkscape:bbox-nodes="false"
     inkscape:snap-bbox-edge-midpoints="false"
     inkscape:snap-smooth-nodes="true">
    <inkscape:grid
       type="xygrid"
       id="grid4773"
       originx="-1.729537"
       originy="-3.9687505" />
  </sodipodi:namedview>
  <defs
     id="defs2" />
  <g
     inkscape:label="Layer 1"
     inkscape:groupmode="layer"
     id="layer1"
     style="display:inline"
     transform="translate(-1.7295367,-3.9687484)">
    <g
       id="g6958"
       transform="translate(-6.2859777,-2.6454267)" />
    <path
       id="path4226"
       style="fill:#000000;fill-opacity:1"
       d="m 22.489583,3.9687484 c 0,0 0.09871,30.2689206 0,44.9791666 -6.468844,-2.400876 -14.0734967,-0.216773 -19.0308928,4.419905 -2.69774791,2.139159 -2.2088361,6.706489 1.2567535,7.735576 5.179823,2.073608 11.2024903,0.575612 15.8611343,-2.145036 2.89977,-1.861509 4.558838,-4.718778 4.587253,-8.719295 0.08449,-11.895381 -0.0075,-23.791344 -0.02841,-35.686983 l 19.843745,6.614583 v 33.072917 c -6.063013,-3.000394 -13.506394,-0.824124 -18.539269,3.214048 -2.691058,1.770906 -3.70219,6.346411 -0.334064,7.969212 4.69712,2.582441 10.554994,1.332439 15.174172,-0.824335 3.148345,-1.460216 6.344995,-3.744342 6.344995,-7.713092 0.04362,-11.738768 0,-34.395833 0,-34.395833 l 18.520833,5.291666 c 0,0 0.01767,19.80169 0,30.427084 -6.441577,-2.391019 -13.430656,0.408883 -18.367196,5.026109 -2.685881,2.130268 -2.199049,6.678346 1.251568,7.703267 5.336757,2.11769 11.554304,0.501673 16.265614,-2.435577 2.643254,-1.562114 3.495847,-2.356299 3.495847,-7.647966 0.02676,-14.592785 0,-43.65625 0,-43.65625 z"
       sodipodi:nodetypes="cssccscscscccccccccccc" />
  </g>
  <metadata
     id="metadata4775">
    <rdf:RDF>
      <cc:Work
         rdf:about="" />
    </rdf:RDF>
  </metadata>
</svg>
