<?xml version="1.0" encoding="UTF-8" standalone="no"?>
<!-- Created with Inkscape (http://www.inkscape.org/) -->

<svg
   width="16.0px"
   height="16.0px"
   viewBox="0 0 16.0 16.0"
   version="1.1"
   id="SVGRoot"
   sodipodi:docname="gm-snd-volume-high-symbolic-rtl.svg"
   inkscape:version="1.4 (e7c3feb100, 2024-10-09)"
   xmlns:inkscape="http://www.inkscape.org/namespaces/inkscape"
   xmlns:sodipodi="http://sodipodi.sourceforge.net/DTD/sodipodi-0.dtd"
   xmlns="http://www.w3.org/2000/svg"
   xmlns:svg="http://www.w3.org/2000/svg"
   xmlns:rdf="http://www.w3.org/1999/02/22-rdf-syntax-ns#"
   xmlns:cc="http://creativecommons.org/ns#"
   xmlns:dc="http://purl.org/dc/elements/1.1/">
  <sodipodi:namedview
     id="namedview829"
     pagecolor="#ffffff"
     bordercolor="#666666"
     borderopacity="1.0"
     inkscape:pageshadow="2"
     inkscape:pageopacity="0.0"
     inkscape:pagecheckerboard="0"
     inkscape:document-units="px"
     showgrid="true"
     inkscape:zoom="40.993492"
     inkscape:cx="6.0741349"
     inkscape:cy="7.3426289"
     inkscape:window-width="1801"
     inkscape:window-height="1095"
     inkscape:window-x="69"
     inkscape:window-y="48"
     inkscape:window-maximized="0"
     inkscape:current-layer="SVGRoot"
     inkscape:snap-smooth-nodes="true"
     inkscape:showpageshadow="2"
     inkscape:deskcolor="#d1d1d1">
    <inkscape:grid
       type="xygrid"
       id="grid892"
       originx="0"
       originy="0"
       spacingy="1"
       spacingx="1"
       units="px"
       visible="true" />
  </sodipodi:namedview>
  <defs
     id="defs824" />
  <metadata
     id="metadata691">
    <rdf:RDF>
      <cc:Work
         rdf:about="">
        <dc:creator>
          <cc:Agent>
            <dc:title>dqpb &lt;dqpb@mailbox.org&gt;</dc:title>
          </cc:Agent>
        </dc:creator>
        <dc:rights>
          <cc:Agent>
            <dc:title>Copyright (C) 2024 The GMetronome Team</dc:title>
          </cc:Agent>
        </dc:rights>
        <dc:publisher>
          <cc:Agent>
            <dc:title>The GMetronome Team</dc:title>
          </cc:Agent>
        </dc:publisher>
        <dc:source>https://gitlab.gnome.org/dqpb/gmetronome</dc:source>
        <cc:license
           rdf:resource="http://creativecommons.org/licenses/by/4.0/" />
      </cc:Work>
      <cc:License
         rdf:about="http://creativecommons.org/licenses/by/4.0/">
        <cc:permits
           rdf:resource="http://creativecommons.org/ns#Reproduction" />
        <cc:permits
           rdf:resource="http://creativecommons.org/ns#Distribution" />
        <cc:requires
           rdf:resource="http://creativecommons.org/ns#Notice" />
        <cc:requires
           rdf:resource="http://creativecommons.org/ns#Attribution" />
        <cc:permits
           rdf:resource="http://creativecommons.org/ns#DerivativeWorks" />
      </cc:License>
    </rdf:RDF>
  </metadata>
  <path
     style="fill:#000000;fill-opacity:1"
     d="m 16,4.984245 h -3 l -4,-4 v 14 l 4,-4 3,0.03151 z"
     id="path3"
     inkscape:label="speaker" />
  <path
     style="color:#000000;fill:#000000;stroke-linecap:round;-inkscape-stroke:none"
     d="M 6.1582031,4.6893231 A 1,1 0 0 1 6.8378906,5.0428387 1,1 0 0 1 6.7148437,6.452995 C 6.2614727,6.8334185 6,7.3924111 6,7.984245 6,8.5760789 6.2614727,9.1350715 6.7148437,9.515495 A 1,1 0 0 1 6.8378906,10.925651 1,1 0 0 1 5.429687,11.048698 C 4.524436,10.289102 4,9.1659667 4,7.984245 4,6.8025234 4.524436,5.6793879 5.429687,4.9197919 A 1,1 0 0 1 6.1582031,4.6893231 Z"
     id="path2"
     inkscape:label="inner wave" />
  <path
     style="color:#000000;opacity:0.5;stroke-linecap:round;-inkscape-stroke:none"
     d="M 3.587891,1.62487 A 1,1 0 0 1 4.265625,1.9783856 1,1 0 0 1 4.142578,3.3885419 C 2.783459,4.5289784 2,6.2100408 2,7.984245 c 0,1.7742042 0.783459,3.455267 2.142578,4.595703 a 1,1 0 0 1 0.123047,1.410156 1,1 0 0 1 -1.408203,0.123047 C 1.046422,12.593542 0,10.348337 0,7.984245 0,5.620153 1.046422,3.3749478 2.857422,1.8553387 A 1,1 0 0 1 3.587891,1.62487 Z"
     id="path4"
     inkscape:label="outer wave" />
</svg>
