<?xml version="1.0" encoding="UTF-8" standalone="no"?>
<!-- Created with Inkscape (http://www.inkscape.org/) -->

<svg
   width="16.0px"
   height="16.0px"
   viewBox="0 0 16.0 16.0"
   version="1.1"
   id="SVGRoot"
   sodipodi:docname="gm-snd-volume-high-symbolic.svg"
   inkscape:version="1.3.2 (091e20ef0f, 2023-11-25, custom)"
   xmlns:inkscape="http://www.inkscape.org/namespaces/inkscape"
   xmlns:sodipodi="http://sodipodi.sourceforge.net/DTD/sodipodi-0.dtd"
   xmlns="http://www.w3.org/2000/svg"
   xmlns:svg="http://www.w3.org/2000/svg"
   xmlns:rdf="http://www.w3.org/1999/02/22-rdf-syntax-ns#"
   xmlns:cc="http://creativecommons.org/ns#"
   xmlns:dc="http://purl.org/dc/elements/1.1/">
  <sodipodi:namedview
     id="namedview829"
     pagecolor="#ffffff"
     bordercolor="#666666"
     borderopacity="1.0"
     inkscape:pageshadow="2"
     inkscape:pageopacity="0.0"
     inkscape:pagecheckerboard="0"
     inkscape:document-units="px"
     showgrid="true"
     inkscape:zoom="40.993492"
     inkscape:cx="6.0497408"
     inkscape:cy="7.3426289"
     inkscape:window-width="1801"
     inkscape:window-height="1095"
     inkscape:window-x="69"
     inkscape:window-y="48"
     inkscape:window-maximized="0"
     inkscape:current-layer="SVGRoot"
     inkscape:snap-smooth-nodes="true"
     inkscape:showpageshadow="2"
     inkscape:deskcolor="#d1d1d1">
    <inkscape:grid
       type="xygrid"
       id="grid892"
       originx="0"
       originy="0"
       spacingy="1"
       spacingx="1"
       units="px"
       visible="true" />
  </sodipodi:namedview>
  <defs
     id="defs824" />
  <metadata
     id="metadata691">
    <rdf:RDF>
      <cc:Work
         rdf:about="">
        <dc:creator>
          <cc:Agent>
            <dc:title>dqpb &lt;dqpb@mailbox.org&gt;</dc:title>
          </cc:Agent>
        </dc:creator>
        <dc:rights>
          <cc:Agent>
            <dc:title>Copyright (C) 2024 The GMetronome Team</dc:title>
          </cc:Agent>
        </dc:rights>
        <dc:publisher>
          <cc:Agent>
            <dc:title>The GMetronome Team</dc:title>
          </cc:Agent>
        </dc:publisher>
        <dc:source>https://gitlab.gnome.org/dqpb/gmetronome</dc:source>
        <cc:license
           rdf:resource="http://creativecommons.org/licenses/by/4.0/" />
      </cc:Work>
      <cc:License
         rdf:about="http://creativecommons.org/licenses/by/4.0/">
        <cc:permits
           rdf:resource="http://creativecommons.org/ns#Reproduction" />
        <cc:permits
           rdf:resource="http://creativecommons.org/ns#Distribution" />
        <cc:requires
           rdf:resource="http://creativecommons.org/ns#Notice" />
        <cc:requires
           rdf:resource="http://creativecommons.org/ns#Attribution" />
        <cc:permits
           rdf:resource="http://creativecommons.org/ns#DerivativeWorks" />
      </cc:License>
    </rdf:RDF>
  </metadata>
  <path
     style="fill:#000000;fill-opacity:1"
     d="M 0,5 H 3 L 7,1 V 15 L 3,11 0,11.03151 Z"
     id="path3"
     inkscape:label="speaker" />
  <path
     style="color:#000000;fill:#000000;stroke-linecap:round;-inkscape-stroke:none"
     d="M 9.8417969,4.7050781 A 1,1 0 0 0 9.1621094,5.0585937 1,1 0 0 0 9.2851563,6.46875 C 9.7385273,6.8491735 10,7.4081661 10,8 10,8.5918339 9.7385273,9.1508265 9.2851563,9.53125 a 1,1 0 0 0 -0.1230469,1.410156 1,1 0 0 0 1.4082036,0.123047 C 11.475564,10.304857 12,9.1817217 12,8 12,6.8182784 11.475564,5.6951429 10.570313,4.9355469 A 1,1 0 0 0 9.8417969,4.7050781 Z"
     id="path2"
     inkscape:label="inner wave" />
  <path
     style="color:#000000;stroke-linecap:round;-inkscape-stroke:none;opacity:0.5"
     d="m 12.412109,1.640625 a 1,1 0 0 0 -0.677734,0.3535156 1,1 0 0 0 0.123047,1.4101563 C 13.216541,4.5447334 14,6.2257958 14,8 c 0,1.7742042 -0.783459,3.455267 -2.142578,4.595703 a 1,1 0 0 0 -0.123047,1.410156 1,1 0 0 0 1.408203,0.123047 C 14.953578,12.609297 16,10.364092 16,8 16,5.635908 14.953578,3.3907028 13.142578,1.8710937 A 1,1 0 0 0 12.412109,1.640625 Z"
     id="path4"
     inkscape:label="outer wave" />
</svg>
