<?xml version="1.0" encoding="UTF-8" standalone="no"?>
<!-- Created with Inkscape (http://www.inkscape.org/) -->

<svg
   width="16.0px"
   height="16.0px"
   viewBox="0 0 16.0 16.0"
   version="1.1"
   id="SVGRoot"
   sodipodi:docname="sound-classic-symbolic.svg"
   inkscape:version="1.1.2 (0a00cf5339, 2022-02-04, custom)"
   xmlns:inkscape="http://www.inkscape.org/namespaces/inkscape"
   xmlns:sodipodi="http://sodipodi.sourceforge.net/DTD/sodipodi-0.dtd"
   xmlns="http://www.w3.org/2000/svg"
   xmlns:svg="http://www.w3.org/2000/svg">
  <sodipodi:namedview
     id="namedview829"
     pagecolor="#ffffff"
     bordercolor="#666666"
     borderopacity="1.0"
     inkscape:pageshadow="2"
     inkscape:pageopacity="0.0"
     inkscape:pagecheckerboard="0"
     inkscape:document-units="px"
     showgrid="true"
     inkscape:zoom="11.313708"
     inkscape:cx="10.076272"
     inkscape:cy="11.136932"
     inkscape:window-width="1338"
     inkscape:window-height="971"
     inkscape:window-x="-2"
     inkscape:window-y="27"
     inkscape:window-maximized="0"
     inkscape:current-layer="layer1"
     inkscape:snap-smooth-nodes="true"
     inkscape:snap-grids="true"
     inkscape:snap-to-guides="true">
    <inkscape:grid
       type="xygrid"
       id="grid892" />
  </sodipodi:namedview>
  <defs
     id="defs824">
    <inkscape:path-effect
       effect="bspline"
       id="path-effect12592"
       is_visible="true"
       lpeversion="1"
       weight="33.333333"
       steps="2"
       helper_size="0"
       apply_no_weight="true"
       apply_with_weight="true"
       only_selected="false" />
    <inkscape:path-effect
       effect="bspline"
       id="path-effect7987"
       is_visible="true"
       lpeversion="1"
       weight="33.333333"
       steps="2"
       helper_size="0"
       apply_no_weight="true"
       apply_with_weight="true"
       only_selected="false" />
    <inkscape:path-effect
       effect="bspline"
       id="path-effect7983"
       is_visible="true"
       lpeversion="1"
       weight="33.333333"
       steps="2"
       helper_size="0"
       apply_no_weight="true"
       apply_with_weight="true"
       only_selected="false" />
    <inkscape:path-effect
       effect="bspline"
       id="path-effect7979"
       is_visible="true"
       lpeversion="1"
       weight="33.333333"
       steps="2"
       helper_size="0"
       apply_no_weight="true"
       apply_with_weight="true"
       only_selected="false" />
    <inkscape:path-effect
       effect="bspline"
       id="path-effect7975"
       is_visible="true"
       lpeversion="1"
       weight="33.333333"
       steps="2"
       helper_size="0"
       apply_no_weight="true"
       apply_with_weight="true"
       only_selected="false" />
    <inkscape:path-effect
       effect="bspline"
       id="path-effect7118"
       is_visible="true"
       lpeversion="1"
       weight="33.333333"
       steps="2"
       helper_size="0"
       apply_no_weight="true"
       apply_with_weight="true"
       only_selected="false" />
    <inkscape:path-effect
       effect="bspline"
       id="path-effect6188"
       is_visible="true"
       lpeversion="1"
       weight="33.333333"
       steps="2"
       helper_size="0"
       apply_no_weight="true"
       apply_with_weight="true"
       only_selected="false" />
    <inkscape:path-effect
       effect="bspline"
       id="path-effect4855"
       is_visible="true"
       lpeversion="1"
       weight="33.333333"
       steps="2"
       helper_size="0"
       apply_no_weight="true"
       apply_with_weight="true"
       only_selected="false" />
    <inkscape:path-effect
       effect="bspline"
       id="path-effect952"
       is_visible="true"
       lpeversion="1"
       weight="33.333333"
       steps="2"
       helper_size="0"
       apply_no_weight="true"
       apply_with_weight="true"
       only_selected="false" />
  </defs>
  <g
     inkscape:label="Layer 1"
     inkscape:groupmode="layer"
     id="layer1"
     style="display:inline">
    <path
       style="color:#000000;fill:#000000;-inkscape-stroke:none"
       d="M 5.6621094,1 2,11 H 14 L 10.337891,1 Z M 6.3378906,2 H 9.6621094 L 13,11 H 3 Z"
       id="path3519"
       sodipodi:nodetypes="cccccccccc" />
    <path
       style="color:#000000;fill:#000000;stroke-linecap:round;-inkscape-stroke:none"
       d="M 13.242188,1.5625 C 12.620628,1.3099583 12.401182,2.0979516 12.152894,2.4951039 10.622762,5.2493403 9.0926312,8.0035766 7.5625,10.757813 7.1694566,11.556667 8.5213378,11.690483 8.6050662,10.940569 10.226628,8.0095707 11.869405,5.0891428 13.477696,2.1515334 13.548096,1.932762 13.448227,1.6693794 13.242188,1.5625 Z"
       id="path3516" />
    <g
       id="g10250">
      <path
         style="color:#000000;fill:#000000;-inkscape-stroke:none;fill-opacity:0.69999999"
         d="M 7,3 C 7,3.3333333 7,3.6666667 7,4 7.6666667,4 8.3333333,4 9,4 9,3.6666667 9,3.3333333 9,3 8.3333333,3 7.6666667,3 7,3 Z"
         id="path3534" />
      <path
         style="color:#000000;fill:#000000;-inkscape-stroke:none;fill-opacity:0.69999999"
         d="M 7,5 C 7,5.3333333 7,5.6666667 7,6 7.6666667,6 8.3333333,6 9,6 9,5.6666667 9,5.3333333 9,5 8.3333333,5 7.6666667,5 7,5 Z"
         id="path3531" />
      <path
         style="color:#000000;fill:#000000;-inkscape-stroke:none;fill-opacity:0.69999999"
         d="M 7,7 C 7,7.3333333 7,7.6666667 7,8 7.6666667,8 8.3333333,8 9,8 9,7.6666667 9,7.3333333 9,7 8.3333333,7 7.6666667,7 7,7 Z"
         id="path3528" />
      <path
         style="color:#000000;fill:#000000;-inkscape-stroke:none;fill-opacity:0.69999999"
         d="m 7,9 c 0,0.3333333 0,0.6666667 0,1 0.6666667,0 1.3333333,0 2,0 C 9,9.6666667 9,9.3333333 9,9 8.3333333,9 7.6666667,9 7,9 Z"
         id="path3525" />
    </g>
    <path
       style="color:#000000;fill:#000000;stroke-width:1;-inkscape-stroke:none"
       d="m 14,11 -1,4 H 3 L 2,11 Z"
       id="path8219"
       sodipodi:nodetypes="ccccc" />
  </g>
</svg>
